<svg xmlns="http://www.w3.org/2000/svg" xml:space="preserve" id="array" x="0" y="0" style="enable-background:new 0 0 128 128" version="1.1" viewBox="0 0 128 128">
  <path d="M30,104c0,1.1-0.9,2-2,2c-9.92,0-18-8.08-18-18V40c0-9.92,8.08-18,18-18c1.1,0,2,0.9,2,2s-0.9,2-2,2c-7.72,0-14,6.28-14,14
	v48c0,7.72,6.28,14,14,14C29.1,102,30,102.9,30,104z M100,22c-1.1,0-2,0.9-2,2s0.9,2,2,2c7.72,0,14,6.28,14,14v48
	c0,7.72-6.28,14-14,14c-1.1,0-2,0.9-2,2s0.9,2,2,2c9.92,0,18-8.08,18-18V40C118,30.08,109.92,22,100,22z M74,64
	c0,5.51-4.49,10-10,10s-10-4.49-10-10s4.49-10,10-10S74,58.49,74,64z M70,64c0-3.31-2.69-6-6-6s-6,2.69-6,6s2.69,6,6,6
	S70,67.31,70,64z M44,64c0,5.51-4.49,10-10,10s-10-4.49-10-10s4.49-10,10-10S44,58.49,44,64z M40,64c0-3.31-2.69-6-6-6s-6,2.69-6,6
	s2.69,6,6,6S40,67.31,40,64z M94,74c-5.51,0-10-4.49-10-10s4.49-10,10-10s10,4.49,10,10S99.51,74,94,74z M100,64c0-3.31-2.69-6-6-6
	s-6,2.69-6,6s2.69,6,6,6S100,67.31,100,64z"></path>
</svg>
